<svg
  xmlns="http://www.w3.org/2000/svg"
  xmlns:xlink="http://www.w3.org/1999/xlink"
  viewBox="0 0 2500 833"
  fill="currentColor"
  style="max-width: 100%; height: auto;"
><path fill="#000000" fillRule="evenodd" opacity="1.000000" stroke="none"
	d="
M2340.000000,834.000000
	C1560.000122,834.000000 780.500183,834.000000 1.000209,834.000000
	C1.000139,556.333435 1.000139,278.666931 1.000070,1.000284
	C834.333069,1.000189 1667.666138,1.000189 2500.999512,1.000095
	C2500.999512,278.666412 2500.999512,556.332825 2500.999756,833.999634
	C2447.500000,834.000000 2394.000000,834.000000 2340.000000,834.000000
M397.416870,329.932373
	C391.348114,333.268127 385.261993,336.573151 379.231934,339.977417
	C378.454132,340.416504 378.097717,341.591797 377.323364,342.048737
	C371.942963,345.223816 366.277557,347.968994 361.138733,351.487640
	C354.259186,356.198090 347.652039,361.332672 341.150787,366.562225
	C334.303223,372.070465 327.774750,377.973480 321.002319,383.577667
	C314.444397,389.004242 307.685669,394.188843 301.151886,399.643555
	C298.227539,402.084961 295.757721,405.066254 292.869354,407.556305
	C287.403625,412.268402 281.687347,416.691956 276.267334,421.454102
	C273.224518,424.127594 270.714233,427.403076 267.701569,430.115906
	C262.604340,434.705719 257.221222,438.977753 252.116623,443.559784
	C249.836197,445.606720 248.076477,448.226593 245.840775,450.331909
	C240.877762,455.005463 235.699219,459.451385 230.780182,464.169067
	C230.043991,464.875122 230.235672,466.548584 230.004028,467.744019
	C330.093872,467.744019 429.490967,467.744019 529.774048,467.744019
	C528.554932,466.086670 527.990051,464.477722 526.918274,463.995758
	C518.858765,460.370972 510.578491,457.449615 502.997925,452.553345
	C494.573792,447.112213 484.962250,443.539795 476.343689,438.361542
	C466.106140,432.210480 455.860504,426.110779 446.804901,417.994385
	C440.004150,411.898895 433.427795,405.899628 428.492188,398.181732
	C423.482330,390.347778 423.771332,381.544464 427.432953,374.185364
	C430.600037,367.820068 437.138000,363.102844 442.321075,357.788971
	C443.730896,356.343536 445.493713,355.078339 447.327240,354.238586
	C455.452698,350.517273 464.086945,350.123810 472.828156,350.811371
	C473.610657,350.872894 474.402313,351.334778 475.109802,351.747681
	C479.113220,354.083893 482.913544,356.878784 487.137878,358.689819
	C490.345337,360.064911 494.081757,360.206116 498.471832,361.071594
	C497.779358,359.373901 497.216034,358.671356 497.267181,358.016785
	C498.059784,347.877655 492.444061,340.660583 485.852875,334.241394
	C482.480133,330.956696 477.778595,329.083313 474.047974,326.107727
	C469.044403,322.116852 463.356995,320.335327 457.191223,320.210510
	C446.699127,319.998077 436.199493,320.163696 425.703033,320.156860
	C423.151001,320.155182 419.829041,319.071869 418.207977,320.285217
	C414.878815,322.777161 410.925934,322.735687 407.531372,324.395752
	C404.205261,326.022400 401.132263,328.166626 397.977264,330.031738
	C397.977264,330.031738 398.010681,329.982483 397.416870,329.932373
M1627.699585,420.916962
	C1627.451538,417.805389 1627.203613,414.693787 1626.951172,411.526825
	C1636.505371,408.954681 1636.088013,408.693848 1634.783325,398.396912
	C1630.684204,398.396912 1626.546021,398.489014 1622.414429,398.365753
	C1619.474609,398.278107 1616.252075,398.596436 1613.666504,397.513794
	C1607.396851,394.888519 1600.944702,393.758301 1594.372192,394.647827
	C1585.510742,395.847260 1577.453857,399.048401 1572.899536,407.553955
	C1567.182861,418.230225 1569.602173,427.680481 1579.662231,436.424194
	C1570.716064,443.425018 1570.984741,452.494171 1576.530029,458.710175
	C1562.952881,468.397461 1563.973633,480.362640 1578.945923,487.897919
	C1586.993164,491.947876 1595.626221,491.250305 1604.141113,491.116516
	C1616.428833,490.923431 1626.893433,486.360809 1632.479248,475.039703
	C1638.364258,463.111969 1633.231812,451.645905 1619.309692,449.241364
	C1613.335449,448.209503 1607.108154,448.733521 1601.053345,448.045593
	C1596.893066,447.572968 1592.831787,446.230682 1588.726196,445.277130
	C1588.698975,444.419556 1588.671753,443.562012 1588.644531,442.704468
	C1590.813232,441.948334 1592.933960,440.775909 1595.160278,440.518799
	C1600.532471,439.898468 1606.157471,440.494598 1611.310181,439.165192
	C1620.094482,436.898956 1624.956055,430.216614 1627.699585,420.916962
M1509.593994,369.018890
	C1499.424561,374.768280 1495.187500,383.770844 1495.706299,395.556671
	C1492.968018,395.556671 1490.626709,395.315521 1488.372803,395.654663
	C1487.180908,395.833984 1485.456909,396.806396 1485.144409,397.792053
	C1483.233521,403.819733 1485.830688,408.799255 1492.100708,409.911774
	C1495.695679,410.549622 1495.849243,412.235291 1495.841797,414.945251
	C1495.797607,430.941986 1495.813599,446.938873 1495.830566,462.935730
	C1495.832275,464.528961 1495.978027,466.122070 1496.056396,467.702454
	C1502.244873,467.702454 1508.009033,467.702454 1514.311523,467.702454
	C1514.311523,448.446991 1514.311523,429.393219 1514.311523,410.443665
	C1522.421387,410.443665 1529.983398,410.443665 1537.803833,410.443665
	C1537.803833,412.426117 1537.803833,414.073517 1537.803833,415.720917
	C1537.803833,431.549255 1537.795532,447.377625 1537.813843,463.205963
	C1537.816284,465.295105 1537.230469,467.866547 1540.635742,467.891205
	C1546.075684,467.930573 1551.516357,467.901764 1557.175537,467.901764
	C1557.175537,444.568970 1557.145508,421.757812 1557.211060,398.946930
	C1557.219971,395.866180 1555.644897,395.485962 1553.101196,395.506012
	C1541.604614,395.596619 1530.107178,395.559723 1518.609985,395.540588
	C1516.854492,395.537659 1515.099243,395.387146 1512.684692,395.273987
	C1513.961670,391.576111 1514.359741,388.109741 1516.161865,385.688202
	C1519.894165,380.672638 1525.384399,378.811646 1531.692505,378.927032
	C1541.429199,379.105164 1541.311401,378.955994 1543.038086,369.412048
	C1543.515747,366.772064 1543.181274,365.627411 1540.382080,365.065613
	C1529.915649,362.965179 1519.870117,363.897980 1509.593994,369.018890
M1859.264648,372.984924
	C1857.598145,372.983398 1855.813843,372.596436 1854.289795,373.061646
	C1851.233154,373.994690 1848.289917,374.928833 1848.168457,379.359619
	C1848.048706,383.730011 1847.139404,388.158447 1845.986938,392.401337
	C1844.411133,398.203003 1838.439453,395.319824 1834.925293,397.434265
	C1834.654785,397.597076 1834.379028,397.751282 1834.111694,397.919830
	C1833.204468,408.940216 1833.206299,408.942535 1844.454468,410.646332
	C1844.454468,423.725800 1844.400269,436.862640 1844.476929,449.998749
	C1844.516724,456.833710 1846.895264,462.652954 1853.225586,465.944519
	C1863.725098,471.404175 1874.882690,469.717529 1883.685669,461.676666
	C1877.817383,451.078186 1877.817383,451.078186 1867.489502,453.717926
	C1863.620605,451.498932 1862.714355,448.196838 1862.950195,444.003204
	C1863.286499,438.022583 1863.038940,432.009125 1863.039673,426.009674
	C1863.040405,420.752136 1863.039795,415.494568 1863.039795,410.360107
	C1873.837891,410.360107 1883.925537,410.360107 1894.342529,410.360107
	C1894.342529,429.598938 1894.342529,448.541199 1894.342529,467.585510
	C1900.718628,467.585510 1906.756348,467.585510 1912.168945,467.585510
	C1912.168945,443.419708 1912.168945,419.602753 1912.168945,395.488281
	C1895.392822,395.488281 1879.438721,395.488281 1863.040161,395.488281
	C1863.040161,389.216309 1863.225342,383.237885 1862.908691,377.286133
	C1862.830322,375.814575 1861.121948,374.429779 1859.264648,372.984924
M1243.728149,415.720764
	C1244.390991,421.557068 1244.449707,427.541260 1245.835205,433.200592
	C1249.323364,447.447998 1257.506714,458.323486 1270.850586,464.929688
	C1278.871094,468.900543 1287.525391,468.930145 1296.216187,468.927124
	C1310.069336,468.922272 1321.226318,463.714630 1329.386230,452.707214
	C1328.401489,451.280243 1327.597656,450.042786 1326.721680,448.858704
	C1322.779053,443.528412 1317.771484,441.179535 1314.964355,444.039764
	C1310.339111,448.752441 1304.613281,449.982086 1298.612915,450.914215
	C1281.256592,453.610443 1266.195557,441.248566 1265.148926,423.861176
	C1264.869385,419.216370 1265.046143,414.539459 1265.119751,409.878967
	C1265.258301,401.110901 1274.970703,388.198364 1282.826904,385.868835
	C1292.896484,382.883026 1302.272705,383.615479 1311.364624,389.381653
	C1317.800781,393.463470 1319.479858,392.767090 1323.858643,386.632904
	C1324.433472,385.827454 1325.101318,385.084778 1325.760010,384.343262
	C1328.372681,381.402527 1327.827637,379.404144 1324.668335,376.868347
	C1312.231201,366.885437 1298.203613,364.071472 1282.908203,367.144745
	C1267.959351,370.148407 1256.239380,378.182953 1249.933716,392.224518
	C1246.774536,399.259094 1245.729858,407.243225 1243.728149,415.720764
M794.935669,368.142426
	C789.330444,371.101990 783.101746,373.282990 778.242676,377.174255
	C766.085388,386.910187 760.203735,400.172363 760.138489,415.698212
	C760.112488,421.873199 760.943054,428.127930 762.080566,434.216125
	C764.592773,447.661926 772.705994,457.243408 784.286255,463.952698
	C793.067993,469.040680 802.733337,470.475311 812.790771,469.906097
	C826.056458,469.155334 836.914673,463.875580 846.067627,452.197906
	C843.519348,450.053741 840.473389,448.300507 838.575317,445.707092
	C835.602539,441.645233 833.187378,442.852112 829.913513,445.098328
	C826.757874,447.263397 823.319275,449.225983 819.730652,450.512268
	C806.754395,455.163544 789.307800,449.009094 783.760376,434.935608
	C779.481140,424.079529 779.291687,412.976227 783.274963,402.197723
	C787.134399,391.754242 797.323608,384.247528 809.331909,384.667450
	C816.276123,384.910278 822.214050,386.536987 827.860413,390.352905
	C830.736633,392.296661 834.130005,393.793854 837.045349,390.376801
	C839.652832,387.320648 841.922607,383.976410 844.470032,380.588165
	C843.144653,379.690033 842.088257,379.183289 841.296814,378.406616
	C828.242859,365.595123 812.273132,365.682404 794.935669,368.142426
M634.046753,521.500000
	C634.046753,411.103973 634.046753,300.707916 634.046753,190.531799
	C630.953308,190.531799 628.689575,190.531799 626.453613,190.531799
	C626.453613,341.730652 626.453613,492.622711 626.453613,643.574890
	C629.063354,643.574890 631.328003,643.574890 634.046753,643.574890
	C634.046753,603.074951 634.046753,562.787476 634.046753,521.500000
M1707.836548,464.938660
	C1707.511719,446.373901 1707.093872,427.810120 1706.892334,409.244019
	C1706.739502,395.169373 1706.863281,395.254089 1692.515747,395.462067
	C1688.609131,395.518707 1686.966309,396.693634 1687.027466,400.915070
	C1687.232544,415.055420 1687.065430,429.201050 1687.062378,443.344635
	C1687.060791,450.766724 1678.857300,456.710999 1671.628052,454.497681
	C1665.364868,452.580139 1662.944702,449.357269 1662.927979,442.608765
	C1662.893066,428.458649 1662.854614,414.307770 1662.983154,400.158661
	C1663.013672,396.785217 1662.031250,395.224426 1658.429321,395.468628
	C1654.950195,395.704529 1651.424927,395.724060 1647.950806,395.449463
	C1644.227661,395.155121 1642.968262,396.535522 1643.016968,400.255737
	C1643.182129,412.888885 1643.010498,425.526215 1643.127686,438.160431
	C1643.157959,441.415649 1643.255005,444.832642 1644.234253,447.882202
	C1646.162720,453.888123 1647.327271,460.064209 1653.427856,464.283112
	C1662.947266,470.866180 1672.353394,470.011658 1682.092163,465.994385
	C1684.796265,464.878967 1687.043579,462.655670 1690.067627,460.544647
	C1689.309204,466.785889 1692.560669,468.083344 1697.172119,467.930878
	C1699.500122,467.853882 1701.866089,468.147949 1704.149780,467.820404
	C1705.341309,467.649536 1706.391724,466.495026 1707.836548,464.938660
M897.778625,397.832367
	C889.006897,394.491547 879.950684,394.337311 871.236633,397.187897
	C859.415833,401.054688 852.178345,409.469482 849.452332,421.828461
	C846.218994,436.487335 848.210388,449.842560 859.150330,460.713440
	C866.646729,468.162415 876.207520,470.686340 886.663574,469.874786
	C897.459167,469.036926 906.574890,465.090393 912.667908,455.659271
	C919.690247,444.789734 920.671936,433.062775 917.647766,420.737335
	C915.011169,409.991608 909.594360,401.690948 897.778625,397.832367
M1389.366211,462.982025
	C1404.308228,451.494019 1405.325684,435.613007 1401.723145,419.287567
	C1399.262329,408.136017 1391.747192,400.590332 1380.173340,396.713409
	C1369.473633,393.129333 1359.484009,393.848969 1350.120483,399.012329
	C1331.795044,409.117676 1330.763794,425.036316 1333.499268,442.181122
	C1334.421387,447.961243 1337.965820,453.770782 1341.635742,458.550262
	C1346.135010,464.409912 1352.746094,468.039520 1360.377197,468.554138
	C1370.220215,469.217926 1380.220947,470.094543 1389.366211,462.982025
M1938.744629,462.832001
	C1947.544189,468.344086 1956.822021,469.908508 1967.222778,468.099335
	C1980.871338,465.725189 1991.860352,455.111237 1993.785522,442.921326
	C1994.942871,435.593170 1994.815674,427.819183 1993.794067,420.449585
	C1992.429077,410.603943 1986.751221,402.965302 1977.724121,398.428558
	C1968.931885,394.009857 1959.538940,393.563080 1950.015869,395.541260
	C1942.005371,397.205231 1935.014404,401.050140 1930.672485,407.963654
	C1925.806030,415.712433 1924.279907,424.419037 1924.472534,433.795959
	C1924.717285,445.711487 1929.151855,454.979706 1938.744629,462.832001
M1414.719727,452.493469
	C1414.719727,457.579163 1414.719727,462.664825 1414.719727,467.728882
	C1421.136841,467.728882 1426.913452,467.728882 1432.631104,467.728882
	C1432.825684,467.268280 1433.051636,466.982513 1433.052368,466.696136
	C1433.087402,452.881226 1433.351074,439.060547 1433.030029,425.253479
	C1432.829224,416.610870 1433.303711,413.846680 1444.346313,410.060394
	C1450.617554,407.910065 1454.587280,409.443359 1457.194092,415.211975
	C1458.100464,417.217804 1458.610596,419.578217 1458.627930,421.781982
	C1458.748535,437.069336 1458.691528,452.358063 1458.691528,467.611572
	C1465.066162,467.611572 1470.975952,467.611572 1477.105347,467.611572
	C1477.105347,450.682068 1477.197144,434.050507 1477.016235,417.421936
	C1476.985596,414.607635 1475.980225,411.740936 1475.085205,409.009888
	C1471.125854,396.927734 1454.357788,391.207245 1443.722046,396.302948
	C1439.703003,398.228516 1435.663452,400.111603 1431.487061,402.083069
	C1430.729614,396.802917 1427.499146,395.311554 1422.669067,395.428955
	C1413.393433,395.654266 1414.761475,394.935547 1414.734131,403.556793
	C1414.683472,419.536346 1414.720337,435.516174 1414.719727,452.493469
M1140.342896,410.902679
	C1146.512207,414.509827 1148.547363,418.950439 1147.614014,425.483582
	C1138.856689,427.298462 1130.238159,428.402802 1122.060547,430.932373
	C1108.361694,435.169861 1104.833374,442.073151 1106.014282,454.472961
	C1106.605835,460.684875 1113.824951,468.602478 1119.345581,468.823700
	C1130.103271,469.254822 1141.194214,470.375824 1149.394409,460.710602
	C1152.994141,469.195526 1152.992676,469.049500 1161.688599,468.960999
	C1165.125854,468.925964 1166.632935,467.564697 1166.566406,464.307678
	C1166.243652,448.525055 1166.521484,432.692932 1165.281860,416.981262
	C1164.611694,408.486938 1159.925903,401.653992 1151.337402,397.557434
	C1144.939087,394.505524 1138.636719,395.467529 1132.372925,395.707489
	C1124.062988,396.025787 1116.789307,399.920013 1110.412720,405.230103
	C1109.725830,405.802155 1109.239136,407.307861 1109.463379,408.171692
	C1111.465942,415.882263 1116.776489,417.615509 1124.352417,414.295654
	C1129.148315,412.194061 1134.604370,411.599243 1140.342896,410.902679
M1794.802979,410.112305
	C1806.486694,410.112366 1809.318237,413.473755 1807.728394,425.876190
	C1806.150757,425.876190 1804.505981,425.730286 1802.894409,425.899963
	C1792.849731,426.957489 1782.914795,428.141327 1774.366699,434.498322
	C1763.887451,442.291290 1763.759888,453.632416 1771.356079,462.490448
	C1777.433105,469.576599 1786.026001,470.322662 1794.402588,468.301300
	C1800.078369,466.931641 1805.310791,463.724670 1810.736694,461.341614
	C1813.338135,468.672852 1814.587769,469.160339 1826.976074,467.379913
	C1826.976074,453.997772 1827.154419,440.548340 1826.885620,427.107880
	C1826.782471,421.950287 1825.962769,416.751526 1824.933960,411.680206
	C1823.129883,402.789215 1816.714233,397.762299 1808.597046,395.645020
	C1795.223633,392.156677 1783.072388,396.059601 1772.044678,403.879791
	C1771.180054,404.492859 1769.988403,406.145508 1770.237915,406.587952
	C1771.972046,409.662842 1773.570190,413.141144 1776.204590,415.250397
	C1777.621582,416.384979 1781.151123,415.513245 1783.464722,414.750000
	C1787.069702,413.560699 1790.451172,411.693420 1794.802979,410.112305
M926.055725,455.922150
	C928.573059,465.293884 935.835327,468.884583 943.987854,469.787201
	C953.966614,470.891968 962.546814,467.209625 969.860413,459.934265
	C970.191833,466.516388 971.219604,469.457306 979.914795,469.054291
	C984.322266,468.850006 986.144043,468.047241 986.019775,463.224731
	C985.676697,449.906921 986.009155,436.572021 985.683044,423.253448
	C985.486633,415.229340 983.943542,407.822662 977.300049,401.807922
	C965.042786,390.710693 940.512756,395.621429 930.047974,405.770569
	C929.516907,406.285614 929.069763,407.197021 929.083069,407.914642
	C929.190491,413.713318 936.575928,418.231293 941.650818,415.669250
	C944.140137,414.412537 946.575195,413.034119 949.122620,411.909637
	C955.614380,409.044037 963.402161,410.973389 966.087097,416.765472
	C967.407104,419.613007 966.968323,423.275848 967.172668,425.159973
	C957.175049,427.522217 948.152283,429.336456 939.322083,431.832245
	C930.930115,434.204102 926.069519,441.359009 926.064575,450.036896
	C926.063660,451.702881 926.056335,453.368835 926.055725,455.922150
M2005.758545,399.756226
	C2006.249146,422.424713 2006.739868,445.093201 2007.229126,467.699707
	C2013.255981,467.699707 2019.020874,467.699707 2025.137329,467.699707
	C2025.137329,452.702606 2025.582397,437.896179 2024.947632,423.136139
	C2024.634888,415.864655 2028.034424,412.426666 2033.794678,409.854523
	C2041.542847,406.394684 2048.190186,409.265442 2049.726807,417.500366
	C2050.745117,422.957977 2050.608398,428.662415 2050.672607,434.260010
	C2050.800781,445.385803 2050.710693,456.514130 2050.710693,467.610504
	C2057.137207,467.610504 2063.053223,467.610504 2069.119629,467.610504
	C2069.119629,456.821503 2069.362305,446.327881 2069.041992,435.851501
	C2068.791016,427.649109 2068.036377,419.447296 2067.157471,411.282654
	C2065.970947,400.260345 2055.401855,394.896362 2046.705933,394.416534
	C2037.783325,393.924194 2030.416016,396.984375 2024.729614,401.159607
	C2022.155762,398.734589 2020.253906,395.431519 2017.897949,395.067749
	C2014.105713,394.482086 2010.006958,395.796539 2006.065796,396.471954
	C2005.835815,396.511383 2005.856079,398.011505 2005.758545,399.756226
M1047.653076,404.185638
	C1040.421021,397.137848 1031.619385,395.290100 1021.776733,395.390198
	C1010.026062,395.509674 999.158508,402.640869 996.747681,414.481049
	C995.089050,422.627258 1001.157104,434.098389 1008.918579,436.515045
	C1014.793274,438.344208 1020.751038,440.044922 1026.365601,442.502411
	C1028.580811,443.472076 1031.464233,446.436859 1031.341919,448.317535
	C1031.195068,450.574341 1028.581665,453.426239 1026.301270,454.642975
	C1020.155396,457.922272 1014.304993,455.247070 1008.875122,452.194122
	C1003.218872,449.013885 1000.556458,449.565765 997.366455,455.272644
	C996.963562,455.993591 996.802551,456.906036 996.266174,457.486603
	C993.761597,460.197845 995.396667,461.444885 997.736877,463.062317
	C1005.624573,468.513550 1014.388550,468.920624 1023.621155,469.083405
	C1036.599243,469.312286 1046.037476,461.550964 1048.662109,450.212799
	C1050.607910,441.806702 1048.475952,434.928650 1040.515015,430.505402
	C1033.929565,426.846466 1026.466187,424.776367 1019.417725,421.938110
	C1016.636658,420.818268 1014.224487,418.907654 1015.209473,415.684265
	C1015.829651,413.654694 1017.845337,410.627319 1019.350159,410.558228
	C1023.942627,410.347168 1028.985962,410.395630 1033.126587,412.104858
	C1039.620361,414.785370 1042.854370,414.433228 1046.305664,408.241638
	C1046.920044,407.139374 1047.441895,405.985504 1047.653076,404.185638
M2117.525635,466.026642
	C2118.589844,465.690948 2119.786377,465.564026 2120.697510,464.986694
	C2128.410400,460.099121 2132.721680,453.668213 2131.988525,443.899445
	C2131.302490,434.759369 2127.378418,429.416229 2118.440186,426.725861
	C2112.713867,425.002319 2107.182129,422.528931 2101.731445,420.025421
	C2097.331787,418.004608 2096.867188,412.864227 2101.291504,411.005493
	C2105.268311,409.334839 2111.198242,407.873535 2114.391113,409.664154
	C2121.962402,413.910767 2127.093750,413.497833 2131.389648,405.918427
	C2131.618896,405.513580 2131.744385,405.049744 2132.437744,403.309906
	C2128.536621,401.142822 2124.721436,398.534058 2120.542969,396.800537
	C2110.752686,392.738525 2100.811279,393.050629 2091.534180,398.154510
	C2079.075684,405.009003 2075.489990,421.903717 2087.092529,431.231201
	C2091.345703,434.650452 2097.119873,436.199799 2102.244385,438.504547
	C2105.329346,439.892120 2108.862549,440.578461 2111.552979,442.484924
	C2116.754395,446.170593 2115.867188,451.168671 2110.002686,453.697235
	C2103.564941,456.472961 2097.953857,454.197906 2092.426025,451.011902
	C2086.863770,447.806061 2084.123047,448.933716 2079.990723,455.720703
	C2076.989746,460.649933 2081.310791,461.903290 2084.051025,463.514435
	C2094.468506,469.640015 2105.626221,468.940765 2117.525635,466.026642
M1066.449707,389.864197
	C1066.697998,398.661804 1058.676270,396.670746 1054.184937,398.999451
	C1053.832886,409.061768 1053.832886,409.061768 1063.944458,410.689819
	C1063.944458,423.760986 1063.838501,436.892792 1063.979248,450.021973
	C1064.084839,459.876678 1071.054443,470.407684 1082.905029,468.936951
	C1085.530518,468.611084 1088.357178,469.390717 1090.866333,468.762848
	C1094.553711,467.840118 1098.134888,466.298065 1101.531006,464.567841
	C1102.232544,464.210449 1102.515503,461.570526 1101.972046,460.500366
	C1100.239136,457.087769 1098.026123,453.918945 1096.719238,451.815704
	C1092.241455,452.630341 1088.072021,454.698242 1086.041138,453.405792
	C1083.821167,451.992981 1082.763550,447.506775 1082.627197,444.299377
	C1082.209717,434.487366 1082.614136,424.643341 1082.410645,414.817780
	C1082.331787,411.011353 1083.742554,409.849518 1087.393188,410.047119
	C1092.154297,410.304871 1096.939819,410.110229 1102.031982,410.110229
	C1102.031982,406.487213 1101.844238,403.341064 1102.081909,400.227325
	C1102.350220,396.711151 1100.675659,395.449402 1097.480835,395.453186
	C1092.686157,395.458832 1087.891602,395.454651 1082.478516,395.454651
	C1082.478516,389.494720 1082.594971,383.883881 1082.396973,378.284149
	C1082.347168,376.872620 1081.656982,374.713562 1080.635864,374.236572
	C1075.588623,371.878967 1069.418823,374.985535 1068.149414,380.358032
	C1067.474976,383.213043 1067.229004,386.169250 1066.449707,389.864197
M1180.056763,374.553833
	C1180.056274,384.046753 1180.054565,393.539703 1180.055298,403.032623
	C1180.056885,423.350708 1179.996704,443.669342 1180.180298,463.985809
	C1180.195190,465.634430 1181.760254,468.586060 1182.816650,468.685516
	C1188.024048,469.175873 1193.302856,468.908478 1198.538086,468.908478
	C1198.538086,433.807220 1198.538086,399.591919 1198.538086,365.401978
	C1192.300903,365.401978 1186.386597,365.401978 1180.057983,365.401978
	C1180.057983,368.317657 1180.057983,370.944977 1180.056763,374.553833
M1725.007812,395.514130
	C1723.756226,396.650452 1721.424683,397.775726 1721.412964,398.924652
	C1721.190308,420.748505 1721.191772,442.575500 1721.369751,464.400024
	C1721.379395,465.583313 1723.271606,467.683105 1724.402832,467.765106
	C1729.480347,468.133179 1734.599609,467.925446 1739.996216,467.925446
	C1739.996216,454.378418 1739.904053,441.408569 1740.082275,428.442413
	C1740.113770,426.138153 1740.901733,423.659882 1741.971436,421.587646
	C1745.730957,414.304260 1751.421509,411.194977 1759.794434,413.512207
	C1760.916260,413.822662 1763.553467,411.779572 1764.113037,410.304413
	C1765.073730,407.771301 1765.020142,404.832947 1765.266113,402.053528
	C1765.790894,396.120483 1764.514404,395.072876 1758.554077,394.479675
	C1749.746094,393.603058 1744.446899,398.900452 1739.271606,404.864838
	C1737.709106,396.048737 1737.058838,395.503998 1728.385986,395.511780
	C1727.552979,395.512512 1726.719849,395.513641 1725.007812,395.514130
M1914.938721,374.699188
	C1914.552856,369.271149 1911.458740,365.258789 1906.792969,364.135742
	C1902.012207,362.985016 1896.216431,365.396118 1893.521606,369.656647
	C1891.235596,373.271027 1891.832886,380.313477 1894.491577,383.548126
	C1897.807007,387.581879 1902.126221,388.934937 1906.802612,387.302216
	C1912.440552,385.333679 1915.784546,382.232452 1914.938721,374.699188
z"/>
<path fill="#56A5B5" opacity="1.000000" stroke="none"
	d="
M397.948151,330.083679
	C401.132263,328.166626 404.205261,326.022400 407.531372,324.395752
	C410.925934,322.735687 414.878815,322.777161 418.207977,320.285217
	C419.829041,319.071869 423.151001,320.155182 425.703033,320.156860
	C436.199493,320.163696 446.699127,319.998077 457.191223,320.210510
	C463.356995,320.335327 469.044403,322.116852 474.047974,326.107727
	C477.778595,329.083313 482.480133,330.956696 485.852875,334.241394
	C492.444061,340.660583 498.059784,347.877655 497.267181,358.016785
	C497.216034,358.671356 497.779358,359.373901 498.471832,361.071594
	C494.081757,360.206116 490.345337,360.064911 487.137878,358.689819
	C482.913544,356.878784 479.113220,354.083893 475.109802,351.747681
	C474.402313,351.334778 473.610657,350.872894 472.828156,350.811371
	C464.086945,350.123810 455.452698,350.517273 447.327240,354.238586
	C445.493713,355.078339 443.730896,356.343536 442.321075,357.788971
	C437.138000,363.102844 430.600037,367.820068 427.432953,374.185364
	C423.771332,381.544464 423.482330,390.347778 428.492188,398.181732
	C433.427795,405.899628 440.004150,411.898895 446.804901,417.994385
	C455.860504,426.110779 466.106140,432.210480 476.343689,438.361542
	C484.962250,443.539795 494.573792,447.112213 502.997925,452.553345
	C510.578491,457.449615 518.858765,460.370972 526.918274,463.995758
	C527.990051,464.477722 528.554932,466.086670 529.774048,467.744019
	C429.490967,467.744019 330.093872,467.744019 230.004028,467.744019
	C230.235672,466.548584 230.043991,464.875122 230.780182,464.169067
	C235.699219,459.451385 240.877762,455.005463 245.840775,450.331909
	C248.076477,448.226593 249.836197,445.606720 252.116623,443.559784
	C257.221222,438.977753 262.604340,434.705719 267.701569,430.115906
	C270.714233,427.403076 273.224518,424.127594 276.267334,421.454102
	C281.687347,416.691956 287.403625,412.268402 292.869354,407.556305
	C295.757721,405.066254 298.227539,402.084961 301.151886,399.643555
	C307.685669,394.188843 314.444397,389.004242 321.002319,383.577667
	C327.774750,377.973480 334.303223,372.070465 341.150787,366.562225
	C347.652039,361.332672 354.259186,356.198090 361.138733,351.487640
	C366.277557,347.968994 371.942963,345.223816 377.323364,342.048737
	C378.097717,341.591797 378.454132,340.416504 379.231934,339.977417
	C385.261993,336.573151 391.348114,333.268127 397.805237,330.161560
	C398.345337,330.283630 398.497040,330.176575 398.648743,330.069519
	C398.415222,330.074219 398.181671,330.078949 397.948151,330.083679
M281.099274,447.971649
	C280.220032,448.043243 279.340820,448.114807 278.461578,448.186371
	C278.479797,448.414825 278.498016,448.643280 278.516266,448.871735
	C336.204681,448.871735 393.893097,448.871735 451.581543,448.871735
	C451.594574,448.596069 451.607635,448.320404 451.620667,448.044739
	C450.426056,447.962250 449.231445,447.879761 447.986969,447.390869
	C447.986969,447.390869 447.929108,446.985474 447.852417,446.375000
	C436.912018,439.572266 426.813416,431.815094 419.122375,421.281067
	C417.358032,418.864563 415.861267,415.766602 413.441132,414.412628
	C407.795288,411.253967 406.996826,405.269928 404.578766,400.445312
	C401.387238,394.077515 402.405609,386.939056 402.471222,379.829254
	C402.541473,372.216492 408.169434,367.856293 409.779755,361.345734
	C410.701477,357.619141 414.840546,354.682983 417.548279,351.405151
	C419.675781,348.829742 421.829681,346.276123 423.971863,343.712799
	C423.756012,343.313751 423.540192,342.914673 423.324371,342.515625
	C417.698334,344.760498 411.874451,346.617554 406.501587,349.358643
	C401.069183,352.130157 396.153046,355.895050 390.882446,359.007599
	C385.677551,362.081390 380.160797,364.646545 375.075134,367.895508
	C372.135223,369.773651 369.920990,372.748688 367.129028,374.904938
	C359.495056,380.800751 351.670990,386.450653 344.047943,392.360199
	C341.721741,394.163483 340.020050,396.788910 337.653809,398.520569
	C332.608246,402.212891 327.027466,405.215118 322.204193,409.158447
	C317.432861,413.059296 313.505371,417.975616 308.874115,422.069000
	C304.049896,426.332886 298.705444,430.004730 293.825439,434.210419
	C291.055389,436.597687 288.787537,439.562195 286.241547,442.216919
	C284.723755,443.799561 281.210358,443.624451 281.922791,447.476074
	C281.922791,447.476074 281.896271,447.790497 281.099274,447.971649
z"/>
<path fill="#F3F0E6" opacity="1.000000" stroke="none"
	d="
M1627.561279,421.311584
	C1624.956055,430.216614 1620.094482,436.898956 1611.310181,439.165192
	C1606.157471,440.494598 1600.532471,439.898468 1595.160278,440.518799
	C1592.933960,440.775909 1590.813232,441.948334 1588.644531,442.704468
	C1588.671753,443.562012 1588.698975,444.419556 1588.726196,445.277130
	C1592.831787,446.230682 1596.893066,447.572968 1601.053345,448.045593
	C1607.108154,448.733521 1613.335449,448.209503 1619.309692,449.241364
	C1633.231812,451.645905 1638.364258,463.111969 1632.479248,475.039703
	C1626.893433,486.360809 1616.428833,490.923431 1604.141113,491.116516
	C1595.626221,491.250305 1586.993164,491.947876 1578.945923,487.897919
	C1563.973633,480.362640 1562.952881,468.397461 1576.530029,458.710175
	C1570.984741,452.494171 1570.716064,443.425018 1579.662231,436.424194
	C1569.602173,427.680481 1567.182861,418.230225 1572.899536,407.553955
	C1577.453857,399.048401 1585.510742,395.847260 1594.372192,394.647827
	C1600.944702,393.758301 1607.396851,394.888519 1613.666504,397.513794
	C1616.252075,398.596436 1619.474609,398.278107 1622.414429,398.365753
	C1626.546021,398.489014 1630.684204,398.396912 1634.783325,398.396912
	C1636.088013,408.693848 1636.505371,408.954681 1626.951172,411.526825
	C1627.203613,414.693787 1627.451538,417.805389 1627.561279,421.311584
M1588.816528,475.717896
	C1596.481323,478.773285 1604.267700,478.155762 1611.720459,475.470673
	C1613.935181,474.672760 1615.963623,471.479675 1616.609619,469.001526
	C1616.929688,467.773560 1614.072876,464.398407 1612.389282,464.196564
	C1605.236938,463.338928 1597.976562,462.976837 1590.776611,463.180298
	C1588.730347,463.238129 1585.616943,465.454071 1585.015503,467.329071
	C1584.120972,470.118195 1583.446533,474.113037 1588.816528,475.717896
M1588.522339,423.312225
	C1591.233398,425.038635 1593.750122,427.309021 1596.701416,428.362549
	C1601.012817,429.901611 1605.078979,428.227539 1607.895874,424.808655
	C1610.068481,422.171478 1612.133545,419.249298 1610.102783,415.212860
	C1607.868774,410.772736 1604.966553,408.048065 1599.689697,408.111877
	C1590.052368,408.228455 1586.845581,412.094482 1588.522339,423.312225
z"/>
<path fill="#F6F2E8" opacity="1.000000" stroke="none"
	d="
M1509.918701,368.826477
	C1519.870117,363.897980 1529.915649,362.965179 1540.382080,365.065613
	C1543.181274,365.627411 1543.515747,366.772064 1543.038086,369.412048
	C1541.311401,378.955994 1541.429199,379.105164 1531.692505,378.927032
	C1525.384399,378.811646 1519.894165,380.672638 1516.161865,385.688202
	C1514.359741,388.109741 1513.961670,391.576111 1512.684692,395.273987
	C1515.099243,395.387146 1516.854492,395.537659 1518.609985,395.540588
	C1530.107178,395.559723 1541.604614,395.596619 1553.101196,395.506012
	C1555.644897,395.485962 1557.219971,395.866180 1557.211060,398.946930
	C1557.145508,421.757812 1557.175537,444.568970 1557.175537,467.901764
	C1551.516357,467.901764 1546.075684,467.930573 1540.635742,467.891205
	C1537.230469,467.866547 1537.816284,465.295105 1537.813843,463.205963
	C1537.795532,447.377625 1537.803833,431.549255 1537.803833,415.720917
	C1537.803833,414.073517 1537.803833,412.426117 1537.803833,410.443665
	C1529.983398,410.443665 1522.421387,410.443665 1514.311523,410.443665
	C1514.311523,429.393219 1514.311523,448.446991 1514.311523,467.702454
	C1508.009033,467.702454 1502.244873,467.702454 1496.056396,467.702454
	C1495.978027,466.122070 1495.832275,464.528961 1495.830566,462.935730
	C1495.813599,446.938873 1495.797607,430.941986 1495.841797,414.945251
	C1495.849243,412.235291 1495.695679,410.549622 1492.100708,409.911774
	C1485.830688,408.799255 1483.233521,403.819733 1485.144409,397.792053
	C1485.456909,396.806396 1487.180908,395.833984 1488.372803,395.654663
	C1490.626709,395.315521 1492.968018,395.556671 1495.706299,395.556671
	C1495.187500,383.770844 1499.424561,374.768280 1509.918701,368.826477
z"/>
<path fill="#F3EFE5" opacity="1.000000" stroke="none"
	d="
M1859.713745,372.994995
	C1861.121948,374.429779 1862.830322,375.814575 1862.908691,377.286133
	C1863.225342,383.237885 1863.040161,389.216309 1863.040161,395.488281
	C1879.438721,395.488281 1895.392822,395.488281 1912.168945,395.488281
	C1912.168945,419.602753 1912.168945,443.419708 1912.168945,467.585510
	C1906.756348,467.585510 1900.718628,467.585510 1894.342529,467.585510
	C1894.342529,448.541199 1894.342529,429.598938 1894.342529,410.360107
	C1883.925537,410.360107 1873.837891,410.360107 1863.039795,410.360107
	C1863.039795,415.494568 1863.040405,420.752136 1863.039673,426.009674
	C1863.038940,432.009125 1863.286499,438.022583 1862.950195,444.003204
	C1862.714355,448.196838 1863.620605,451.498932 1867.489502,453.717926
	C1877.817383,451.078186 1877.817383,451.078186 1883.685669,461.676666
	C1874.882690,469.717529 1863.725098,471.404175 1853.225586,465.944519
	C1846.895264,462.652954 1844.516724,456.833710 1844.476929,449.998749
	C1844.400269,436.862640 1844.454468,423.725800 1844.454468,410.646332
	C1833.206299,408.942535 1833.204468,408.940216 1834.108643,397.914673
	C1834.379028,397.751282 1834.654785,397.597076 1834.925293,397.434265
	C1838.439453,395.319824 1844.411133,398.203003 1845.986938,392.401337
	C1847.139404,388.158447 1848.048706,383.730011 1848.168457,379.359619
	C1848.289917,374.928833 1851.233154,373.994690 1854.289795,373.061646
	C1855.813843,372.596436 1857.598145,372.983398 1859.713745,372.994995
z"/>
<path fill="#F3EFE5" opacity="1.000000" stroke="none"
	d="
M1243.728516,415.259338
	C1245.729858,407.243225 1246.774536,399.259094 1249.933716,392.224518
	C1256.239380,378.182953 1267.959351,370.148407 1282.908203,367.144745
	C1298.203613,364.071472 1312.231201,366.885437 1324.668335,376.868347
	C1327.827637,379.404144 1328.372681,381.402527 1325.760010,384.343262
	C1325.101318,385.084778 1324.433472,385.827454 1323.858643,386.632904
	C1319.479858,392.767090 1317.800781,393.463470 1311.364624,389.381653
	C1302.272705,383.615479 1292.896484,382.883026 1282.826904,385.868835
	C1274.970703,388.198364 1265.258301,401.110901 1265.119751,409.878967
	C1265.046143,414.539459 1264.869385,419.216370 1265.148926,423.861176
	C1266.195557,441.248566 1281.256592,453.610443 1298.612915,450.914215
	C1304.613281,449.982086 1310.339111,448.752441 1314.964355,444.039764
	C1317.771484,441.179535 1322.779053,443.528412 1326.721680,448.858704
	C1327.597656,450.042786 1328.401489,451.280243 1329.386230,452.707214
	C1321.226318,463.714630 1310.069336,468.922272 1296.216187,468.927124
	C1287.525391,468.930145 1278.871094,468.900543 1270.850586,464.929688
	C1257.506714,458.323486 1249.323364,447.447998 1245.835205,433.200592
	C1244.449707,427.541260 1244.390991,421.557068 1243.728516,415.259338
z"/>
<path fill="#F4F0E5" opacity="1.000000" stroke="none"
	d="
M795.356689,368.095947
	C812.273132,365.682404 828.242859,365.595123 841.296814,378.406616
	C842.088257,379.183289 843.144653,379.690033 844.470032,380.588165
	C841.922607,383.976410 839.652832,387.320648 837.045349,390.376801
	C834.130005,393.793854 830.736633,392.296661 827.860413,390.352905
	C822.214050,386.536987 816.276123,384.910278 809.331909,384.667450
	C797.323608,384.247528 787.134399,391.754242 783.274963,402.197723
	C779.291687,412.976227 779.481140,424.079529 783.760376,434.935608
	C789.307800,449.009094 806.754395,455.163544 819.730652,450.512268
	C823.319275,449.225983 826.757874,447.263397 829.913513,445.098328
	C833.187378,442.852112 835.602539,441.645233 838.575317,445.707092
	C840.473389,448.300507 843.519348,450.053741 846.067627,452.197906
	C836.914673,463.875580 826.056458,469.155334 812.790771,469.906097
	C802.733337,470.475311 793.067993,469.040680 784.286255,463.952698
	C772.705994,457.243408 764.592773,447.661926 762.080566,434.216125
	C760.943054,428.127930 760.112488,421.873199 760.138489,415.698212
	C760.203735,400.172363 766.085388,386.910187 778.242676,377.174255
	C783.101746,373.282990 789.330444,371.101990 795.356689,368.095947
z"/>
<path fill="#F3F0E2" opacity="1.000000" stroke="none"
	d="
M634.046753,522.000000
	C634.046753,562.787476 634.046753,603.074951 634.046753,643.574890
	C631.328003,643.574890 629.063354,643.574890 626.453613,643.574890
	C626.453613,492.622711 626.453613,341.730652 626.453613,190.531799
	C628.689575,190.531799 630.953308,190.531799 634.046753,190.531799
	C634.046753,300.707916 634.046753,411.103973 634.046753,522.000000
z"/>
<path fill="#F3EFE5" opacity="1.000000" stroke="none"
	d="
M1707.671143,465.361725
	C1706.391724,466.495026 1705.341309,467.649536 1704.149780,467.820404
	C1701.866089,468.147949 1699.500122,467.853882 1697.172119,467.930878
	C1692.560669,468.083344 1689.309204,466.785889 1690.067627,460.544647
	C1687.043579,462.655670 1684.796265,464.878967 1682.092163,465.994385
	C1672.353394,470.011658 1662.947266,470.866180 1653.427856,464.283112
	C1647.327271,460.064209 1646.162720,453.888123 1644.234253,447.882202
	C1643.255005,444.832642 1643.157959,441.415649 1643.127686,438.160431
	C1643.010498,425.526215 1643.182129,412.888885 1643.016968,400.255737
	C1642.968262,396.535522 1644.227661,395.155121 1647.950806,395.449463
	C1651.424927,395.724060 1654.950195,395.704529 1658.429321,395.468628
	C1662.031250,395.224426 1663.013672,396.785217 1662.983154,400.158661
	C1662.854614,414.307770 1662.893066,428.458649 1662.927979,442.608765
	C1662.944702,449.357269 1665.364868,452.580139 1671.628052,454.497681
	C1678.857300,456.710999 1687.060791,450.766724 1687.062378,443.344635
	C1687.065430,429.201050 1687.232544,415.055420 1687.027466,400.915070
	C1686.966309,396.693634 1688.609131,395.518707 1692.515747,395.462067
	C1706.863281,395.254089 1706.739502,395.169373 1706.892334,409.244019
	C1707.093872,427.810120 1707.511719,446.373901 1707.671143,465.361725
z"/>
<path fill="#F4F0E6" opacity="1.000000" stroke="none"
	d="
M898.093994,398.069336
	C909.594360,401.690948 915.011169,409.991608 917.647766,420.737335
	C920.671936,433.062775 919.690247,444.789734 912.667908,455.659271
	C906.574890,465.090393 897.459167,469.036926 886.663574,469.874786
	C876.207520,470.686340 866.646729,468.162415 859.150330,460.713440
	C848.210388,449.842560 846.218994,436.487335 849.452332,421.828461
	C852.178345,409.469482 859.415833,401.054688 871.236633,397.187897
	C879.950684,394.337311 889.006897,394.491547 898.093994,398.069336
M868.581360,421.664612
	C868.265991,428.091003 867.346191,434.559784 867.792969,440.932739
	C868.315552,448.387085 874.793823,454.425323 880.903137,455.098389
	C892.023682,456.323517 897.298767,450.615143 898.677429,443.566925
	C899.958008,437.019806 900.261292,429.994049 899.366882,423.399841
	C898.649841,418.114014 895.887695,412.787292 889.705505,411.065735
	C881.597290,408.807831 872.881531,409.981049 868.581360,421.664612
z"/>
<path fill="#F4F0E6" opacity="1.000000" stroke="none"
	d="
M1389.009277,463.058044
	C1380.220947,470.094543 1370.220215,469.217926 1360.377197,468.554138
	C1352.746094,468.039520 1346.135010,464.409912 1341.635742,458.550262
	C1337.965820,453.770782 1334.421387,447.961243 1333.499268,442.181122
	C1330.763794,425.036316 1331.795044,409.117676 1350.120483,399.012329
	C1359.484009,393.848969 1369.473633,393.129333 1380.173340,396.713409
	C1391.747192,400.590332 1399.262329,408.136017 1401.723145,419.287567
	C1405.325684,435.613007 1404.308228,451.494019 1389.009277,463.058044
M1351.243774,435.959564
	C1351.842651,438.162018 1352.568726,440.338928 1353.016968,442.571625
	C1354.450439,449.713104 1358.478638,453.964142 1366.091797,454.922333
	C1371.975708,455.662842 1377.337036,453.667389 1380.316895,448.203430
	C1384.927246,439.749969 1384.974487,430.816833 1382.698486,421.532166
	C1380.977661,414.511902 1377.048218,410.343719 1370.072998,409.139435
	C1364.237305,408.131897 1356.257690,411.840546 1354.001953,417.909546
	C1352.015137,423.255188 1351.987427,429.329041 1351.243774,435.959564
z"/>
<path fill="#F4F0E6" opacity="1.000000" stroke="none"
	d="
M1938.439575,462.616394
	C1929.151855,454.979706 1924.717285,445.711487 1924.472534,433.795959
	C1924.279907,424.419037 1925.806030,415.712433 1930.672485,407.963654
	C1935.014404,401.050140 1942.005371,397.205231 1950.015869,395.541260
	C1959.538940,393.563080 1968.931885,394.009857 1977.724121,398.428558
	C1986.751221,402.965302 1992.429077,410.603943 1993.794067,420.449585
	C1994.815674,427.819183 1994.942871,435.593170 1993.785522,442.921326
	C1991.860352,455.111237 1980.871338,465.725189 1967.222778,468.099335
	C1956.822021,469.908508 1947.544189,468.344086 1938.439575,462.616394
M1975.344360,437.669556
	C1977.430420,430.021545 1976.031128,422.740967 1972.628296,415.839050
	C1969.436523,409.365265 1963.550171,408.436737 1957.117432,409.125336
	C1950.981445,409.782257 1946.837769,413.191681 1945.176025,418.974426
	C1942.998657,426.552307 1943.235107,434.056854 1944.597290,442.051880
	C1946.652466,454.114685 1962.098145,457.484589 1969.577515,451.098755
	C1973.544067,447.712280 1974.687744,443.311432 1975.344360,437.669556
z"/>
<path fill="#F6F2E8" opacity="1.000000" stroke="none"
	d="
M1414.720215,451.994690
	C1414.720337,435.516174 1414.683472,419.536346 1414.734131,403.556793
	C1414.761475,394.935547 1413.393433,395.654266 1422.669067,395.428955
	C1427.499146,395.311554 1430.729614,396.802917 1431.487061,402.083069
	C1435.663452,400.111603 1439.703003,398.228516 1443.722046,396.302948
	C1454.357788,391.207245 1471.125854,396.927734 1475.085205,409.009888
	C1475.980225,411.740936 1476.985596,414.607635 1477.016235,417.421936
	C1477.197144,434.050507 1477.105347,450.682068 1477.105347,467.611572
	C1470.975952,467.611572 1465.066162,467.611572 1458.691528,467.611572
	C1458.691528,452.358063 1458.748535,437.069336 1458.627930,421.781982
	C1458.610596,419.578217 1458.100464,417.217804 1457.194092,415.211975
	C1454.587280,409.443359 1450.617554,407.910065 1444.346313,410.060394
	C1433.303711,413.846680 1432.829224,416.610870 1433.030029,425.253479
	C1433.351074,439.060547 1433.087402,452.881226 1433.052368,466.696136
	C1433.051636,466.982513 1432.825684,467.268280 1432.631104,467.728882
	C1426.913452,467.728882 1421.136841,467.728882 1414.719727,467.728882
	C1414.719727,462.664825 1414.719727,457.579163 1414.720215,451.994690
z"/>
<path fill="#F3F0E5" opacity="1.000000" stroke="none"
	d="
M1140.053711,410.615662
	C1134.604370,411.599243 1129.148315,412.194061 1124.352417,414.295654
	C1116.776489,417.615509 1111.465942,415.882263 1109.463379,408.171692
	C1109.239136,407.307861 1109.725830,405.802155 1110.412720,405.230103
	C1116.789307,399.920013 1124.062988,396.025787 1132.372925,395.707489
	C1138.636719,395.467529 1144.939087,394.505524 1151.337402,397.557434
	C1159.925903,401.653992 1164.611694,408.486938 1165.281860,416.981262
	C1166.521484,432.692932 1166.243652,448.525055 1166.566406,464.307678
	C1166.632935,467.564697 1165.125854,468.925964 1161.688599,468.960999
	C1152.992676,469.049500 1152.994141,469.195526 1149.394409,460.710602
	C1141.194214,470.375824 1130.103271,469.254822 1119.345581,468.823700
	C1113.824951,468.602478 1106.605835,460.684875 1106.014282,454.472961
	C1104.833374,442.073151 1108.361694,435.169861 1122.060547,430.932373
	C1130.238159,428.402802 1138.856689,427.298462 1147.614014,425.483582
	C1148.547363,418.950439 1146.512207,414.509827 1140.053711,410.615662
M1142.994629,452.676605
	C1148.807983,449.394104 1148.375977,444.182892 1147.621582,438.418030
	C1142.552246,438.817963 1137.796021,438.930939 1133.140869,439.675568
	C1130.946289,440.026611 1128.788696,441.358551 1126.887939,442.649170
	C1122.010132,445.961182 1122.688965,452.213226 1127.949707,454.942627
	C1133.237671,457.686005 1137.658813,454.404907 1142.994629,452.676605
z"/>
<path fill="#F3EFE5" opacity="1.000000" stroke="none"
	d="
M1794.365234,410.112885
	C1790.451172,411.693420 1787.069702,413.560699 1783.464722,414.750000
	C1781.151123,415.513245 1777.621582,416.384979 1776.204590,415.250397
	C1773.570190,413.141144 1771.972046,409.662842 1770.237915,406.587952
	C1769.988403,406.145508 1771.180054,404.492859 1772.044678,403.879791
	C1783.072388,396.059601 1795.223633,392.156677 1808.597046,395.645020
	C1816.714233,397.762299 1823.129883,402.789215 1824.933960,411.680206
	C1825.962769,416.751526 1826.782471,421.950287 1826.885620,427.107880
	C1827.154419,440.548340 1826.976074,453.997772 1826.976074,467.379913
	C1814.587769,469.160339 1813.338135,468.672852 1810.736694,461.341614
	C1805.310791,463.724670 1800.078369,466.931641 1794.402588,468.301300
	C1786.026001,470.322662 1777.433105,469.576599 1771.356079,462.490448
	C1763.759888,453.632416 1763.887451,442.291290 1774.366699,434.498322
	C1782.914795,428.141327 1792.849731,426.957489 1802.894409,425.899963
	C1804.505981,425.730286 1806.150757,425.876190 1807.728394,425.876190
	C1809.318237,413.473755 1806.486694,410.112366 1794.365234,410.112885
M1791.723755,440.069275
	C1790.665894,440.537781 1789.229004,440.721771 1788.622925,441.529297
	C1786.945190,443.765137 1784.312622,446.335236 1784.443848,448.637146
	C1784.653442,452.310608 1787.597046,454.725586 1791.809204,455.094177
	C1803.190918,456.090332 1809.454468,449.472900 1807.736206,437.336700
	C1802.616943,438.083618 1797.486206,438.832214 1791.723755,440.069275
z"/>
<path fill="#F3EFE5" opacity="1.000000" stroke="none"
	d="
M926.053833,455.478485
	C926.056335,453.368835 926.063660,451.702881 926.064575,450.036896
	C926.069519,441.359009 930.930115,434.204102 939.322083,431.832245
	C948.152283,429.336456 957.175049,427.522217 967.172668,425.159973
	C966.968323,423.275848 967.407104,419.613007 966.087097,416.765472
	C963.402161,410.973389 955.614380,409.044037 949.122620,411.909637
	C946.575195,413.034119 944.140137,414.412537 941.650818,415.669250
	C936.575928,418.231293 929.190491,413.713318 929.083069,407.914642
	C929.069763,407.197021 929.516907,406.285614 930.047974,405.770569
	C940.512756,395.621429 965.042786,390.710693 977.300049,401.807922
	C983.943542,407.822662 985.486633,415.229340 985.683044,423.253448
	C986.009155,436.572021 985.676697,449.906921 986.019775,463.224731
	C986.144043,468.047241 984.322266,468.850006 979.914795,469.054291
	C971.219604,469.457306 970.191833,466.516388 969.860413,459.934265
	C962.546814,467.209625 953.966614,470.891968 943.987854,469.787201
	C935.835327,468.884583 928.573059,465.293884 926.053833,455.478485
M952.544434,456.035095
	C965.528381,454.244965 968.764648,449.810791 966.572815,438.242554
	C961.042847,439.086700 955.283630,439.345245 949.961487,441.005219
	C946.636841,442.042145 943.453857,444.421265 943.725037,449.403259
	C944.030823,455.023682 947.949951,455.149933 952.544434,456.035095
z"/>
<path fill="#F6F2E9" opacity="1.000000" stroke="none"
	d="
M2005.759277,399.294067
	C2005.856079,398.011505 2005.835815,396.511383 2006.065796,396.471954
	C2010.006958,395.796539 2014.105713,394.482086 2017.897949,395.067749
	C2020.253906,395.431519 2022.155762,398.734589 2024.729614,401.159607
	C2030.416016,396.984375 2037.783325,393.924194 2046.705933,394.416534
	C2055.401855,394.896362 2065.970947,400.260345 2067.157471,411.282654
	C2068.036377,419.447296 2068.791016,427.649109 2069.041992,435.851501
	C2069.362305,446.327881 2069.119629,456.821503 2069.119629,467.610504
	C2063.053223,467.610504 2057.137207,467.610504 2050.710693,467.610504
	C2050.710693,456.514130 2050.800781,445.385803 2050.672607,434.260010
	C2050.608398,428.662415 2050.745117,422.957977 2049.726807,417.500366
	C2048.190186,409.265442 2041.542847,406.394684 2033.794678,409.854523
	C2028.034424,412.426666 2024.634888,415.864655 2024.947632,423.136139
	C2025.582397,437.896179 2025.137329,452.702606 2025.137329,467.699707
	C2019.020874,467.699707 2013.255981,467.699707 2007.229126,467.699707
	C2006.739868,445.093201 2006.249146,422.424713 2005.759277,399.294067
z"/>
<path fill="#F4F0E5" opacity="1.000000" stroke="none"
	d="
M1047.829834,404.520538
	C1047.441895,405.985504 1046.920044,407.139374 1046.305664,408.241638
	C1042.854370,414.433228 1039.620361,414.785370 1033.126587,412.104858
	C1028.985962,410.395630 1023.942627,410.347168 1019.350159,410.558228
	C1017.845337,410.627319 1015.829651,413.654694 1015.209473,415.684265
	C1014.224487,418.907654 1016.636658,420.818268 1019.417725,421.938110
	C1026.466187,424.776367 1033.929565,426.846466 1040.515015,430.505402
	C1048.475952,434.928650 1050.607910,441.806702 1048.662109,450.212799
	C1046.037476,461.550964 1036.599243,469.312286 1023.621155,469.083405
	C1014.388550,468.920624 1005.624573,468.513550 997.736877,463.062317
	C995.396667,461.444885 993.761597,460.197845 996.266174,457.486603
	C996.802551,456.906036 996.963562,455.993591 997.366455,455.272644
	C1000.556458,449.565765 1003.218872,449.013885 1008.875122,452.194122
	C1014.304993,455.247070 1020.155396,457.922272 1026.301270,454.642975
	C1028.581665,453.426239 1031.195068,450.574341 1031.341919,448.317535
	C1031.464233,446.436859 1028.580811,443.472076 1026.365601,442.502411
	C1020.751038,440.044922 1014.793274,438.344208 1008.918579,436.515045
	C1001.157104,434.098389 995.089050,422.627258 996.747681,414.481049
	C999.158508,402.640869 1010.026062,395.509674 1021.776733,395.390198
	C1031.619385,395.290100 1040.421021,397.137848 1047.829834,404.520538
z"/>
<path fill="#F4F0E6" opacity="1.000000" stroke="none"
	d="
M2117.208496,466.291107
	C2105.626221,468.940765 2094.468506,469.640015 2084.051025,463.514435
	C2081.310791,461.903290 2076.989746,460.649933 2079.990723,455.720703
	C2084.123047,448.933716 2086.863770,447.806061 2092.426025,451.011902
	C2097.953857,454.197906 2103.564941,456.472961 2110.002686,453.697235
	C2115.867188,451.168671 2116.754395,446.170593 2111.552979,442.484924
	C2108.862549,440.578461 2105.329346,439.892120 2102.244385,438.504547
	C2097.119873,436.199799 2091.345703,434.650452 2087.092529,431.231201
	C2075.489990,421.903717 2079.075684,405.009003 2091.534180,398.154510
	C2100.811279,393.050629 2110.752686,392.738525 2120.542969,396.800537
	C2124.721436,398.534058 2128.536621,401.142822 2132.437744,403.309906
	C2131.744385,405.049744 2131.618896,405.513580 2131.389648,405.918427
	C2127.093750,413.497833 2121.962402,413.910767 2114.391113,409.664154
	C2111.198242,407.873535 2105.268311,409.334839 2101.291504,411.005493
	C2096.867188,412.864227 2097.331787,418.004608 2101.731445,420.025421
	C2107.182129,422.528931 2112.713867,425.002319 2118.440186,426.725861
	C2127.378418,429.416229 2131.302490,434.759369 2131.988525,443.899445
	C2132.721680,453.668213 2128.410400,460.099121 2120.697510,464.986694
	C2119.786377,465.564026 2118.589844,465.690948 2117.208496,466.291107
z"/>
<path fill="#F5F1E7" opacity="1.000000" stroke="none"
	d="
M1066.619629,389.471985
	C1067.229004,386.169250 1067.474976,383.213043 1068.149414,380.358032
	C1069.418823,374.985535 1075.588623,371.878967 1080.635864,374.236572
	C1081.656982,374.713562 1082.347168,376.872620 1082.396973,378.284149
	C1082.594971,383.883881 1082.478516,389.494720 1082.478516,395.454651
	C1087.891602,395.454651 1092.686157,395.458832 1097.480835,395.453186
	C1100.675659,395.449402 1102.350220,396.711151 1102.081909,400.227325
	C1101.844238,403.341064 1102.031982,406.487213 1102.031982,410.110229
	C1096.939819,410.110229 1092.154297,410.304871 1087.393188,410.047119
	C1083.742554,409.849518 1082.331787,411.011353 1082.410645,414.817780
	C1082.614136,424.643341 1082.209717,434.487366 1082.627197,444.299377
	C1082.763550,447.506775 1083.821167,451.992981 1086.041138,453.405792
	C1088.072021,454.698242 1092.241455,452.630341 1096.719238,451.815704
	C1098.026123,453.918945 1100.239136,457.087769 1101.972046,460.500366
	C1102.515503,461.570526 1102.232544,464.210449 1101.531006,464.567841
	C1098.134888,466.298065 1094.553711,467.840118 1090.866333,468.762848
	C1088.357178,469.390717 1085.530518,468.611084 1082.905029,468.936951
	C1071.054443,470.407684 1064.084839,459.876678 1063.979248,450.021973
	C1063.838501,436.892792 1063.944458,423.760986 1063.944458,410.689819
	C1053.832886,409.061768 1053.832886,409.061768 1054.184937,398.999451
	C1058.676270,396.670746 1066.697998,398.661804 1066.619629,389.471985
z"/>
<path fill="#F2EFE4" opacity="1.000000" stroke="none"
	d="
M1180.057373,374.063049
	C1180.057983,370.944977 1180.057983,368.317657 1180.057983,365.401978
	C1186.386597,365.401978 1192.300903,365.401978 1198.538086,365.401978
	C1198.538086,399.591919 1198.538086,433.807220 1198.538086,468.908478
	C1193.302856,468.908478 1188.024048,469.175873 1182.816650,468.685516
	C1181.760254,468.586060 1180.195190,465.634430 1180.180298,463.985809
	C1179.996704,443.669342 1180.056885,423.350708 1180.055298,403.032623
	C1180.054565,393.539703 1180.056274,384.046753 1180.057373,374.063049
z"/>
<path fill="#F2EFE4" opacity="1.000000" stroke="none"
	d="
M1725.447266,395.514343
	C1726.719849,395.513641 1727.552979,395.512512 1728.385986,395.511780
	C1737.058838,395.503998 1737.709106,396.048737 1739.271606,404.864838
	C1744.446899,398.900452 1749.746094,393.603058 1758.554077,394.479675
	C1764.514404,395.072876 1765.790894,396.120483 1765.266113,402.053528
	C1765.020142,404.832947 1765.073730,407.771301 1764.113037,410.304413
	C1763.553467,411.779572 1760.916260,413.822662 1759.794434,413.512207
	C1751.421509,411.194977 1745.730957,414.304260 1741.971436,421.587646
	C1740.901733,423.659882 1740.113770,426.138153 1740.082275,428.442413
	C1739.904053,441.408569 1739.996216,454.378418 1739.996216,467.925446
	C1734.599609,467.925446 1729.480347,468.133179 1724.402832,467.765106
	C1723.271606,467.683105 1721.379395,465.583313 1721.369751,464.400024
	C1721.191772,442.575500 1721.190308,420.748505 1721.412964,398.924652
	C1721.424683,397.775726 1723.756226,396.650452 1725.447266,395.514343
z"/>
<path fill="#F2EFE4" opacity="1.000000" stroke="none"
	d="
M1914.938232,375.131226
	C1915.784546,382.232452 1912.440552,385.333679 1906.802612,387.302216
	C1902.126221,388.934937 1897.807007,387.581879 1894.491577,383.548126
	C1891.832886,380.313477 1891.235596,373.271027 1893.521606,369.656647
	C1896.216431,365.396118 1902.012207,362.985016 1906.792969,364.135742
	C1911.458740,365.258789 1914.552856,369.271149 1914.938232,375.131226
z"/>
<path fill="#010102" opacity="1.000000" stroke="none"
	d="
M281.926178,447.160675
	C281.210358,443.624451 284.723755,443.799561 286.241547,442.216919
	C288.787537,439.562195 291.055389,436.597687 293.825439,434.210419
	C298.705444,430.004730 304.049896,426.332886 308.874115,422.069000
	C313.505371,417.975616 317.432861,413.059296 322.204193,409.158447
	C327.027466,405.215118 332.608246,402.212891 337.653809,398.520569
	C340.020050,396.788910 341.721741,394.163483 344.047943,392.360199
	C351.670990,386.450653 359.495056,380.800751 367.129028,374.904938
	C369.920990,372.748688 372.135223,369.773651 375.075134,367.895508
	C380.160797,364.646545 385.677551,362.081390 390.882446,359.007599
	C396.153046,355.895050 401.069183,352.130157 406.501587,349.358643
	C411.874451,346.617554 417.698334,344.760498 423.324371,342.515625
	C423.540192,342.914673 423.756012,343.313751 423.971863,343.712799
	C421.829681,346.276123 419.675781,348.829742 417.548279,351.405151
	C414.840546,354.682983 410.701477,357.619141 409.779755,361.345734
	C408.169434,367.856293 402.541473,372.216492 402.471222,379.829254
	C402.405609,386.939056 401.387238,394.077515 404.578766,400.445312
	C406.996826,405.269928 407.795288,411.253967 413.441132,414.412628
	C415.861267,415.766602 417.358032,418.864563 419.122375,421.281067
	C426.813416,431.815094 436.912018,439.572266 447.428894,446.681000
	C428.634338,447.085480 410.263306,447.183960 391.452118,447.144348
	C376.278625,447.049286 361.545288,447.092377 346.358276,447.078369
	C324.578491,447.067780 303.252319,447.114227 281.926178,447.160675
z"/>
<path fill="#1D1839" opacity="1.000000" stroke="none"
	d="
M448.036835,447.797302
	C449.231445,447.879761 450.426056,447.962250 451.620667,448.044739
	C451.607635,448.320404 451.594574,448.596069 451.581543,448.871735
	C393.893097,448.871735 336.204681,448.871735 278.516266,448.871735
	C278.498016,448.643280 278.479797,448.414825 278.461578,448.186371
	C279.340820,448.114807 280.220032,448.043243 281.972656,447.959900
	C304.157745,447.926941 325.469421,447.905701 347.263550,447.980835
	C362.465485,447.938629 377.184906,447.800018 392.373383,447.742767
	C411.240540,447.815186 429.638702,447.806244 448.036835,447.797302
z"/>
<path fill="#6F71DD" opacity="1.000000" stroke="none"
	d="
M346.781097,447.884430
	C325.469421,447.905701 304.157745,447.926941 282.371155,447.869324
	C281.896271,447.790497 281.922791,447.476074 281.924500,447.318359
	C303.252319,447.114227 324.578491,447.067780 346.368134,447.266388
	C346.831635,447.511444 346.781097,447.884430 346.781097,447.884430
z"/>
<path fill="#6F71DD" opacity="1.000000" stroke="none"
	d="
M448.011902,447.594086
	C429.638702,447.806244 411.240540,447.815186 392.381836,447.647522
	C391.921295,447.470886 391.892242,447.282440 391.892242,447.282471
	C410.263306,447.183960 428.634338,447.085480 447.467255,446.986237
	C447.929108,446.985474 447.986969,447.390869 448.011902,447.594086
z"/>
<path fill="#000000" opacity="1.000000" stroke="none"
	d="
M397.962708,330.057709
	C398.181671,330.078949 398.415222,330.074219 398.648743,330.069519
	C398.497040,330.176575 398.345337,330.283630 398.102173,330.186584
	C398.010681,329.982483 397.977264,330.031738 397.962708,330.057709
z"/>
<path fill="#080807" opacity="1.000000" stroke="none"
	d="
M1588.419922,475.591736
	C1583.446533,474.113037 1584.120972,470.118195 1585.015503,467.329071
	C1585.616943,465.454071 1588.730347,463.238129 1590.776611,463.180298
	C1597.976562,462.976837 1605.236938,463.338928 1612.389282,464.196564
	C1614.072876,464.398407 1616.929688,467.773560 1616.609619,469.001526
	C1615.963623,471.479675 1613.935181,474.672760 1611.720459,475.470673
	C1604.267700,478.155762 1596.481323,478.773285 1588.419922,475.591736
z"/>
<path fill="#030202" opacity="1.000000" stroke="none"
	d="
M1588.232422,423.009460
	C1586.845581,412.094482 1590.052368,408.228455 1599.689697,408.111877
	C1604.966553,408.048065 1607.868774,410.772736 1610.102783,415.212860
	C1612.133545,419.249298 1610.068481,422.171478 1607.895874,424.808655
	C1605.078979,428.227539 1601.012817,429.901611 1596.701416,428.362549
	C1593.750122,427.309021 1591.233398,425.038635 1588.232422,423.009460
z"/>
<path fill="#030202" opacity="1.000000" stroke="none"
	d="
M868.606567,421.246185
	C872.881531,409.981049 881.597290,408.807831 889.705505,411.065735
	C895.887695,412.787292 898.649841,418.114014 899.366882,423.399841
	C900.261292,429.994049 899.958008,437.019806 898.677429,443.566925
	C897.298767,450.615143 892.023682,456.323517 880.903137,455.098389
	C874.793823,454.425323 868.315552,448.387085 867.792969,440.932739
	C867.346191,434.559784 868.265991,428.091003 868.606567,421.246185
z"/>
<path fill="#030202" opacity="1.000000" stroke="none"
	d="
M1351.169189,435.520447
	C1351.987427,429.329041 1352.015137,423.255188 1354.001953,417.909546
	C1356.257690,411.840546 1364.237305,408.131897 1370.072998,409.139435
	C1377.048218,410.343719 1380.977661,414.511902 1382.698486,421.532166
	C1384.974487,430.816833 1384.927246,439.749969 1380.316895,448.203430
	C1377.337036,453.667389 1371.975708,455.662842 1366.091797,454.922333
	C1358.478638,453.964142 1354.450439,449.713104 1353.016968,442.571625
	C1352.568726,440.338928 1351.842651,438.162018 1351.169189,435.520447
z"/>
<path fill="#030202" opacity="1.000000" stroke="none"
	d="
M1975.338135,438.108002
	C1974.687744,443.311432 1973.544067,447.712280 1969.577515,451.098755
	C1962.098145,457.484589 1946.652466,454.114685 1944.597290,442.051880
	C1943.235107,434.056854 1942.998657,426.552307 1945.176025,418.974426
	C1946.837769,413.191681 1950.981445,409.782257 1957.117432,409.125336
	C1963.550171,408.436737 1969.436523,409.365265 1972.628296,415.839050
	C1976.031128,422.740967 1977.430420,430.021545 1975.338135,438.108002
z"/>
<path fill="#080807" opacity="1.000000" stroke="none"
	d="
M1142.693604,452.937531
	C1137.658813,454.404907 1133.237671,457.686005 1127.949707,454.942627
	C1122.688965,452.213226 1122.010132,445.961182 1126.887939,442.649170
	C1128.788696,441.358551 1130.946289,440.026611 1133.140869,439.675568
	C1137.796021,438.930939 1142.552246,438.817963 1147.621582,438.418030
	C1148.375977,444.182892 1148.807983,449.394104 1142.693604,452.937531
z"/>
<path fill="#080807" opacity="1.000000" stroke="none"
	d="
M1792.039551,439.825012
	C1797.486206,438.832214 1802.616943,438.083618 1807.736206,437.336700
	C1809.454468,449.472900 1803.190918,456.090332 1791.809204,455.094177
	C1787.597046,454.725586 1784.653442,452.310608 1784.443848,448.637146
	C1784.312622,446.335236 1786.945190,443.765137 1788.622925,441.529297
	C1789.229004,440.721771 1790.665894,440.537781 1792.039551,439.825012
z"/>
<path fill="#080807" opacity="1.000000" stroke="none"
	d="
M952.114136,456.034332
	C947.949951,455.149933 944.030823,455.023682 943.725037,449.403259
	C943.453857,444.421265 946.636841,442.042145 949.961487,441.005219
	C955.283630,439.345245 961.042847,439.086700 966.572815,438.242554
	C968.764648,449.810791 965.528381,454.244965 952.114136,456.034332
z"/>
<path fill="#56A5B5" opacity="1.000000" stroke="none"
	d="
M391.452118,447.144318
	C391.892242,447.282440 391.921295,447.470886 391.912842,447.566162
	C377.184906,447.800018 362.465485,447.938629 347.263550,447.980835
	C346.781097,447.884430 346.831635,447.511444 346.821777,447.323425
	C361.545288,447.092377 376.278625,447.049286 391.452118,447.144318
z"/>
</svg>
